[img]http://i.imgur.com/BOBAq.png[/img]
[pre]Skeleton Lakes plot synopsis: Six ruthless bank robbers encounter someone far worse. Six bank robbers become stranded in a off the grid forest when their vehicle goes missing during the planning of their escape from the police. Now stranded and on a time crunch to make their flight headed out of the country they try to walk out of the forest.

[img]http://i.imgur.com/xvfvU.png[/img]
 Encoded By .......: El Jefe mas Cabron                              
 Runtime ..........: 1h 29mn                                                                                    
 File Size ........: 1.17 GB
 Resolution .......: 1248x512      
 IMDb URL .........: http://www.imdb.com/title/tt1754506/
 Genre ............: Action/Horror/Thriller  
 Source ...........: BluRay.x264-HD4U Gracias
 Language .........: English
 Subtitles ........: None
General
Complete name                    : Battleground 2012 BRrip Xvid LKRG\Battleground-LKRG.avi
Format                           : AVI
Format/Info                      : Audio Video Interleave
File size                        : 1.17 GiB
Duration                         : 1h 29mn
Overall bit rate                 : 1 880 Kbps
Writing application              : VirtualDubMod 1.5.10.2 (build 2540/release)
Writing library                  : VirtualDubMod build 2540/release

Video
ID                               : 0
Format                           : MPEG-4 Visual
Format profile                   : Advanced Simple@L5
Format settings, BVOP            : Yes
Format settings, QPel            : No
Format settings, GMC             : No warppoints
Format settings, Matrix          : Default (H.263)
Muxing mode                      : Packed bitstream
Codec ID                         : XVID
Codec ID/Hint                    : XviD
Duration                         : 1h 29mn
Bit rate                         : 1 647 Kbps
Width                            : 1 248 pixels
Height                           : 512 pixels
Display aspect ratio             : 2.40:1
Frame rate                       : 23.976 fps
Color space                      : YUV
Chroma subsampling               : 4:2:0
Bit depth                        : 8 bits
Scan type                        : Progressive
Compression mode                 : Lossy
Bits/(Pixel*Frame)               : 0.108
Stream size                      : 1.02 GiB (88%)
Writing library                  : XviD 64

Audio
ID                               : 1
Format                           : AC-3
Format/Info                      : Audio Coding 3
Mode extension                   : CM (complete main)
Codec ID                         : 2000
Duration                         : 1h 29mn
Bit rate mode                    : Constant
Bit rate                         : 224 Kbps
Channel(s)                       : 2 channels
Channel positions                : Front: L R
Sampling rate                    : 48.0 KHz
Bit depth                        : 16 bits
Compression mode                 : Lossy
Stream size                      : 143 MiB (12%)
Alignment                        : Split accross interleaves
Interleave, duration             : 42 ms (1.00 video frame)
Interleave, preload duration     : 500 ms